<svg xmlns="http://www.w3.org/2000/svg" height="24" width="21" viewBox="0 0 448 512"><!--!Font Awesome Free 6.7.2 by @fontawesome - https://fontawesome.com License - https://fontawesome.com/license/free Copyright 2025 Fonticons, Inc.--><path d="M427.8 380.7l-196.5 97.8a18.6 18.6 0 0 1 -14.7 0L20.2 380.7c-4-2-4-5.3 0-7.3L67.2 350a18.7 18.7 0 0 1 14.7 0l134.8 67a18.5 18.5 0 0 0 14.7 0l134.8-67a18.6 18.6 0 0 1 14.7 0l47.1 23.4c4.1 2 4.1 5.2 0 7.2zm0-136.5l-47.1-23.4a18.6 18.6 0 0 0 -14.7 0l-134.8 67.1a18.7 18.7 0 0 1 -14.7 0L81.9 220.7a18.7 18.7 0 0 0 -14.7 0l-47.1 23.4c-4 2-4 5.3 0 7.3l196.5 97.8a18.6 18.6 0 0 0 14.7 0l196.5-97.8c4.1-2 4.1-5.3 0-7.3zM20.2 130.4l196.5 90.3a20.1 20.1 0 0 0 14.7 0l196.5-90.3c4-1.9 4-4.9 0-6.7L231.3 33.4a19.9 19.9 0 0 0 -14.7 0l-196.5 90.3c-4.1 1.9-4.1 4.9 0 6.7z"/></svg>